<?xml version="1.0" encoding="UTF-8"?> <svg xmlns="http://www.w3.org/2000/svg" xmlns:xlink="http://www.w3.org/1999/xlink" width="600px" height="600px" viewBox="0 0 600 600" version="1.1"><title>cereal_menu_black@3x</title><g id="Snackje-2.0" stroke="none" stroke-width="1" fill="none" fill-rule="evenodd"><g id="cereal_menu_black" fill="#000000" fill-rule="nonzero"><path d="M70,160 L390,160 C395.522847,160 400,155.522847 400,150 L400,70 C400,64.4771525 395.522847,60 390,60 L70,60 C64.4771525,60 60,64.4771525 60,70 L60,150 C60,155.522847 64.4771525,160 70,160 Z M80,80 L380,80 L380,140 L80,140 L80,80 Z" id="Shape"></path><path d="M320,250 C336.568542,250 350,236.568542 350,220 C350,203.431458 336.568542,190 320,190 C303.431458,190 290,203.431458 290,220 C290.019287,236.560547 303.439453,249.980713 320,250 Z M320,210 C325.522847,210 330,214.477153 330,220 C330,225.522847 325.522847,230 320,230 C314.477153,230 310,225.522847 310,220 C310.0062,214.479723 314.479723,210.0062 320,210 L320,210 Z" id="Shape"></path><path d="M370,260 C353.431458,260 340,273.431458 340,290 C340,306.568542 353.431458,320 370,320 C386.568542,320 400,306.568542 400,290 C399.980713,273.439453 386.560547,260.019287 370,260 Z M370,300 C364.477153,300 360,295.522847 360,290 C360,284.477153 364.477153,280 370,280 C375.522847,280 380,284.477153 380,290 C379.9938,295.520277 375.520277,299.9938 370,300 Z" id="Shape"></path><path d="M320,330 C303.431458,330 290,343.431458 290,360 C290,376.568542 303.431458,390 320,390 C336.568542,390 350,376.568542 350,360 C349.9814,343.439168 336.560832,330.0186 320,330 Z M320,370 C314.477153,370 310,365.522847 310,360 C310,354.477153 314.477153,350 320,350 C325.522847,350 330,354.477153 330,360 C329.9938,365.520277 325.520277,369.9938 320,370 L320,370 Z" id="Shape"></path><path d="M270,400 C253.431458,400 240,413.431458 240,430 C240,446.568542 253.431458,460 270,460 C286.568542,460 300,446.568542 300,430 C299.9814,413.439168 286.560832,400.0186 270,400 Z M270,440 C264.477153,440 260,435.522847 260,430 C260,424.477153 264.477153,420 270,420 C275.522847,420 280,424.477153 280,430 C279.9938,435.520277 275.520277,439.9938 270,440 L270,440 Z" id="Shape"></path><path d="M570,0 L30,0 C24.4771525,0 20,4.4771525 20,10 L20,590 C20,595.522847 24.4771525,600 30,600 L570,600 C575.522847,600 580,595.522847 580,590 L580,10 C580,4.4771525 575.522847,0 570,0 Z M420,20 L420,510.3375 C403.829237,499.936272 386.04174,492.29586 367.365,487.72875 C362.701765,477.318776 352.536316,470.455871 341.137839,470.022252 C329.739361,469.588633 319.081891,475.659396 313.64125,485.685 C313.27375,485.7475 312.9,485.80375 312.535,485.8675 C292.535,489.425 253.95375,494.64375 220.285,489.6475 C192.49625,485.5225 176.09,475.68375 171.44375,460.39 C202.398085,432.034066 220.01678,391.978918 220,350 C220,344.477153 215.522847,340 210,340 L193.04625,340 C192.888442,331.608068 190.915762,323.349764 187.26375,315.7925 L225.1925,221.1675 C231.357033,205.788441 223.887184,188.323908 208.508125,182.159375 C193.129066,175.994842 175.664533,183.464691 169.5,198.84375 L131.5725,293.46875 C115.6775,299.2375 102.28125,312.79125 95.1275,330.64 C93.9055523,333.687857 92.8915625,336.815022 92.0925,340 L40,340 L40,328.28 C52.4332684,332.681796 66.2830998,328.446716 74.1282272,317.844077 C81.9733546,307.241439 81.9733546,292.758561 74.1282272,282.155923 C66.2830998,271.553284 52.4332684,267.318204 40,271.72 L40,20 L420,20 Z M350,500 C350,505.522847 345.522847,510 340,510 C334.477153,510 330,505.522847 330,500 C330,494.477153 334.477153,490 340,490 C345.520277,490.0062 349.9938,494.479723 350,500 L350,500 Z M40,360 L199.625,360 C194.319135,427.681785 137.889395,479.921467 70,480 L40,480 L40,360 Z M167.75,321.83125 C171.04764,327.329934 172.862175,333.590147 173.01625,340 L112.99,340 C113.22,339.3575 113.43625,338.7125 113.69125,338.075 C119.13375,324.49625 129.7925,314.24 141.5075,311.31 C144.619367,310.531503 147.168878,308.307422 148.3625,305.33 L188.065,206.28375 C190.190625,201.269357 195.938116,198.878062 200.993277,200.904825 C206.048438,202.931588 208.552119,208.63102 206.625,213.725 L166.92375,312.77125 C165.729957,315.748951 166.037262,319.118617 167.75,321.83125 L167.75,321.83125 Z M40,300 C40,294.477153 44.4771525,290 50,290 C55.5228475,290 60,294.477153 60,300 C60,305.522847 55.5228475,310 50,310 C44.4797226,309.9938 40.0061999,305.520277 40,300 Z M40,500 L70,500 C100.412401,500.033107 130.108125,490.768267 155.10625,473.4475 C166.44,496.925 194.35625,506.01875 217.34875,509.43 C228.403723,510.99674 239.558472,511.752923 250.72375,511.6925 C270.826145,511.5379 290.884712,509.791187 310.71125,506.46875 C313.655772,519.781391 325.207141,529.434225 338.831121,529.966956 C352.455101,530.499686 364.724945,521.778319 368.7,508.73625 C387.238617,514.225575 404.622328,523.045775 420,534.765 L420,580 L40,580 L40,500 Z M560,580 L440,580 L440,20 L560,20 L560,580 Z" id="Shape"></path><path d="M470,80 L510,80 C515.522847,80 520,75.5228475 520,70 C520,64.4771525 515.522847,60 510,60 L470,60 C464.477153,60 460,64.4771525 460,70 C460,75.5228475 464.477153,80 470,80 Z" id="Path"></path><path d="M470,180 L510,180 C515.522847,180 520,175.522847 520,170 C520,164.477153 515.522847,160 510,160 L470,160 C464.477153,160 460,164.477153 460,170 C460,175.522847 464.477153,180 470,180 Z" id="Path"></path><path d="M470,230 L530,230 C535.522847,230 540,225.522847 540,220 C540,214.477153 535.522847,210 530,210 L470,210 C464.477153,210 460,214.477153 460,220 C460,225.522847 464.477153,230 470,230 Z" id="Path"></path><path d="M470,130 L530,130 C535.522847,130 540,125.522847 540,120 C540,114.477153 535.522847,110 530,110 L470,110 C464.477153,110 460,114.477153 460,120 C460,125.522847 464.477153,130 470,130 Z" id="Path"></path><path d="M470,460 L510,460 C515.522847,460 520,455.522847 520,450 C520,444.477153 515.522847,440 510,440 L470,440 C464.477153,440 460,444.477153 460,450 C460,455.522847 464.477153,460 470,460 Z" id="Path"></path><path d="M470,510 L530,510 C535.522847,510 540,505.522847 540,500 C540,494.477153 535.522847,490 530,490 L470,490 C464.477153,490 460,494.477153 460,500 C460,505.522847 464.477153,510 470,510 Z" id="Path"></path><path d="M470,360 L510,360 C515.522847,360 520,355.522847 520,350 C520,344.477153 515.522847,340 510,340 L470,340 C464.477153,340 460,344.477153 460,350 C460,355.522847 464.477153,360 470,360 Z" id="Path"></path><path d="M470,410 L530,410 C535.522847,410 540,405.522847 540,400 C540,394.477153 535.522847,390 530,390 L470,390 C464.477153,390 460,394.477153 460,400 C460,405.522847 464.477153,410 470,410 Z" id="Path"></path><path d="M280,290 C280,273.431458 266.568542,260 250,260 C233.431458,260 220,273.431458 220,290 C220,306.568542 233.431458,320 250,320 C266.560832,319.9814 279.9814,306.560832 280,290 L280,290 Z M240,290 C240,284.477153 244.477153,280 250,280 C255.522847,280 260,284.477153 260,290 C260,295.522847 255.522847,300 250,300 C244.479723,299.9938 240.0062,295.520277 240,290 L240,290 Z" id="Shape"></path><path d="M90,250 C106.568542,250 120,236.568542 120,220 C120,203.431458 106.568542,190 90,190 C73.4314575,190 60,203.431458 60,220 C60.0185996,236.560832 73.4391678,249.9814 90,250 Z M90,210 C95.5228475,210 100,214.477153 100,220 C100,225.522847 95.5228475,230 90,230 C84.4771525,230 80,225.522847 80,220 C80.0061999,214.479723 84.4797226,210.0062 90,210 L90,210 Z" id="Shape"></path><path d="M470,310 L530,310 C535.522847,310 540,305.522847 540,300 C540,294.477153 535.522847,290 530,290 L470,290 C464.477153,290 460,294.477153 460,300 C460,305.522847 464.477153,310 470,310 Z" id="Path"></path><rect id="Rectangle" fill-opacity="0" x="0" y="0" width="600" height="600"></rect></g></g></svg> 