<?xml version="1.0" encoding="UTF-8"?> <svg xmlns="http://www.w3.org/2000/svg" xmlns:xlink="http://www.w3.org/1999/xlink" width="456px" height="455px" viewBox="0 0 456 455" version="1.1"><title>noun_chips_3997821@3x</title><g id="Snackje-2.0" stroke="none" stroke-width="1" fill="none" fill-rule="evenodd"><g id="noun_chips_3997821" transform="translate(0.979000, 0.000000)"><rect id="Rectangle" stroke-opacity="0" stroke="#979797" fill-opacity="0" fill="#D8D8D8" x="0.5" y="0.5" width="454" height="454"></rect><g id="Group" transform="translate(45.876000, 0.000000)" fill="#000000" fill-rule="nonzero"><path d="M360.104,62.2368843 C360.168,62.1818843 360.193,62.0978843 360.254,62.0408843 C360.693,61.6388843 361.017,61.1488843 361.325,60.6348843 C361.453,60.4208843 361.638,60.2508843 361.739,60.0238843 C362.082,59.2568843 362.291,58.4188843 362.291,57.5258843 L362.291,6.18188426 C362.291,6.04388426 362.22,5.92888426 362.212,5.79488426 C362.187,5.39088426 362.078,5.00888426 361.972,4.61088426 C361.862,4.20188426 361.76,3.80788426 361.572,3.43688426 C361.513,3.31788426 361.515,3.18588426 361.447,3.06988426 C361.314,2.84088426 361.097,2.70588426 360.939,2.50088426 C360.682,2.16488426 360.43,1.84688426 360.11,1.56988426 C359.809,1.31288426 359.491,1.11788426 359.152,0.924884264 C358.8,0.720884264 358.455,0.536884264 358.063,0.403884264 C357.68,0.274884264 357.3,0.221884264 356.899,0.168884264 C356.63,0.132884264 356.39,0.00988426363 356.11,0.00988426363 C355.967,0.00988426363 355.847,0.0818842636 355.707,0.0908842636 C355.307,0.114884264 354.932,0.223884264 354.539,0.326884264 C354.131,0.436884264 353.738,0.535884264 353.369,0.722884264 C353.251,0.780884264 353.12,0.779884264 353.005,0.845884264 L334.162,11.8428843 L315.304,0.845884264 C313.405,-0.270115736 311.008,-0.277115736 309.078,0.853884264 L290.28,11.8358843 L271.542,0.853884264 C269.628,-0.277115736 267.246,-0.292115736 265.301,0.853884264 L246.518,11.8358843 L227.765,0.853884264 C225.835,-0.277115736 223.454,-0.277115736 221.524,0.853884264 L202.801,11.8358843 L184.033,0.853884264 C182.088,-0.277115736 179.707,-0.269115736 177.792,0.861884264 L159.099,11.8288843 L140.421,0.861884264 C138.491,-0.284115736 136.11,-0.276115736 134.18,0.853884264 L115.427,11.8358843 L96.704,0.853884264 C94.774,-0.277115736 92.393,-0.277115736 90.463,0.853884264 L71.71,11.8278843 L53.002,0.853884264 C51.072,-0.277115736 48.691,-0.277115736 46.761,0.853884264 L28.023,11.8358843 C18.063,5.99688426 12.752,2.92788426 9.506,1.38588426 C9.041,1.11188426 8.569,0.879884264 8.028,0.727884264 C5.382,-0.332115736 4.527,0.0418842636 3.105,0.830884264 C1.191,1.93088426 0.015,3.97388426 0.015,6.18988426 C0.015,6.29488426 0.088,6.37888426 0.094,6.48288426 C0.082,6.64588426 -1.42108547e-14,6.79388426 -1.42108547e-14,6.95888426 L-1.42108547e-14,57.5268843 C-1.42108547e-14,59.3428843 0.422,60.6998843 1.794,61.8688843 C2.578,62.7728843 20.879,85.7848843 22.748,247.792884 C22.763,248.712884 24.723,340.306884 0.543,394.431884 C0.536,394.446884 0.539,394.464884 0.533,394.480884 C0.199,395.238884 -1.42108547e-14,396.068884 -1.42108547e-14,396.948884 L-1.42108547e-14,448.300884 C-1.42108547e-14,450.508884 1.192,452.551884 3.106,453.652884 C4.056,454.202884 5.126,454.474884 6.181,454.474884 C7.251,454.474884 8.337,454.195884 9.301,453.630884 L28.129,442.641884 L46.987,453.638884 C48.886,454.754884 51.283,454.761884 53.213,453.630884 L72.011,442.641884 L90.764,453.630884 C92.694,454.761884 95.075,454.761884 97.005,453.630884 L115.773,442.641884 L134.526,453.630884 C136.456,454.761884 138.837,454.761884 140.767,453.630884 L159.49,442.641884 L178.258,453.630884 C180.188,454.761884 182.569,454.768884 184.499,453.622884 L203.192,442.648884 L221.855,453.622884 C223.785,454.768884 226.181,454.760884 228.111,453.630884 L246.864,442.641884 L265.602,453.630884 C267.532,454.761884 269.913,454.761884 271.843,453.630884 L290.581,442.648884 L309.289,453.622884 C311.219,454.768884 313.6,454.760884 315.53,453.630884 L334.283,442.648884 C356.081,455.424884 356.187,455.348884 359.186,453.645884 C361.1,452.545884 362.291,450.502884 362.291,448.286884 L362.291,396.949884 C362.291,396.067884 362.093,395.237884 361.759,394.479884 C361.752,394.464884 361.755,394.447884 361.749,394.432884 C337.569,340.306884 339.529,248.712884 339.559,247.710884 C341.412,85.7838843 359.713,62.7718843 360.104,62.2368843 Z M31.144,24.3158843 L49.882,13.3418843 L68.59,24.3158843 C70.52,25.4468843 72.901,25.4468843 74.831,24.3158843 L93.584,13.3338843 L112.307,24.3158843 C114.237,25.4468843 116.618,25.4468843 118.548,24.3158843 L137.301,13.3418843 L155.979,24.3088843 C157.909,25.4548843 160.29,25.4548843 162.22,24.3088843 L180.913,13.3418843 L199.681,24.3158843 C201.626,25.4618843 204.007,25.4468843 205.922,24.3158843 L224.645,13.3338843 L243.398,24.3158843 C245.312,25.4318843 247.694,25.4468843 249.639,24.3158843 L268.422,13.3338843 L287.16,24.3158843 C289.074,25.4318843 291.456,25.4468843 293.401,24.3158843 L312.199,13.3338843 L331.057,24.3228843 C332.007,24.8808843 333.092,25.1598843 334.162,25.1598843 C335.232,25.1598843 336.318,24.8808843 337.267,24.3228843 L349.93,16.9348843 L349.93,51.3518843 L12.361,51.3518843 L12.361,16.9618843 C18.306,20.4468843 24.903,24.3158843 24.903,24.3158843 C26.833,25.4468843 29.215,25.4468843 31.144,24.3158843 Z M337.402,430.164884 C335.472,429.018884 333.091,429.026884 331.161,430.156884 L312.408,441.138884 L293.7,430.164884 C291.77,429.018884 289.389,429.026884 287.459,430.156884 L268.721,441.138884 L249.983,430.156884 C248.053,429.025884 245.672,429.025884 243.742,430.156884 L224.989,441.138884 L206.326,430.164884 C204.366,429.018884 202,429.018884 200.07,430.164884 L181.377,441.138884 L162.609,430.156884 C160.679,429.025884 158.298,429.025884 156.368,430.156884 L137.645,441.138884 L118.892,430.156884 C116.962,429.025884 114.581,429.025884 112.651,430.156884 L93.883,441.145884 L75.13,430.156884 C73.216,429.025884 70.834,429.003884 68.889,430.156884 L50.091,441.145884 L31.233,430.148884 C29.334,429.032884 26.937,429.025884 25.007,430.156884 L12.359,437.543884 L12.359,403.120884 L349.927,403.120884 L349.927,437.513884 C344.005,434.031884 337.402,430.164884 337.402,430.164884 Z M346.983,390.774884 L15.307,390.774884 C36.901,333.898884 35.18,251.166884 35.093,247.572884 C33.709,128.350884 23.543,81.7848843 16.455,63.6988843 L345.835,63.6988843 C338.746,81.7808843 328.584,128.327884 327.211,247.489884 C327.111,251.163884 325.389,333.898884 346.983,390.774884 Z" id="Shape"></path><path d="M244.527,193.672884 C244.165,193.499884 239.387,191.192884 231.849,191.961884 C231.578,192.157884 230.839,192.014884 230.357,192.134884 C224.131,192.993884 216.232,195.873884 207.474,203.206884 C194.555,214.015884 176.239,217.369884 158.541,212.175884 L154.757,210.999884 C153.596,210.622884 126.055,202.391884 111.01,215.604884 C102.99,222.636884 100.232,233.799884 102.734,248.489884 C102.794,248.949884 108.749,293.472884 159.49,293.464884 C161.374,293.464884 163.334,293.404884 165.354,293.276884 C165.746,293.291884 191.524,294.806884 207.277,269.601884 C217.709,268.945884 246.833,264.687884 257.235,237.824884 C261.742,226.164884 262.119,215.966884 258.32,207.516884 C253.767,197.343884 244.964,193.808884 244.527,193.672884 Z M204.413,243.509884 C195.835,282.289884 167.495,281.090884 165.415,280.955884 C120.553,283.849884 115.201,248.492884 114.96,246.720884 C113.181,236.251884 114.583,228.917884 119.136,224.899884 C122.98,221.507884 128.935,220.437884 134.784,220.437884 C141.372,220.437884 147.839,221.801884 151.019,222.766884 L155.044,224.017884 C176.345,230.273884 198.489,226.293884 214.514,213.397884 C214.348,213.751884 214.182,214.090884 214.032,214.430884 C209.99,222.962884 206.855,232.475884 204.413,243.509884 Z M245.718,233.364884 C239.658,249.034884 223.965,254.476884 213.579,256.368884 C214.679,253.240884 215.659,249.856884 216.473,246.177884 C218.704,236.047884 221.568,227.386884 225.186,219.706884 C228.156,213.442884 231.487,208.016884 234.713,204.149884 C237.577,204.149884 239.281,204.850884 239.582,204.978884 C241.09,205.589884 254.144,211.589884 245.718,233.364884 Z" id="Shape"></path><path d="M292.057,217.332884 L296.986,199.815884 C297.725,197.237884 296.7,194.479884 294.453,192.994884 L278.594,182.479884 L276.86,164.374884 C276.604,161.781884 274.765,159.625884 272.232,158.977884 L253.389,154.161884 L245.158,137.564884 C244.042,135.303884 241.54,133.999884 239.128,134.150884 L219.546,135.718884 L205.677,122.693884 C203.868,120.990884 201.2,120.537884 198.984,121.540884 L181.151,129.356884 L163.318,121.540884 C161.117,120.538884 158.419,120.990884 156.625,122.693884 L142.741,135.718884 L123.174,134.150884 C120.626,133.984884 118.26,135.296884 117.144,137.564884 L108.928,154.154884 L90.07,158.963884 C87.537,159.611884 85.698,161.767884 85.442,164.360884 L83.708,182.472884 L67.849,192.987884 C65.603,194.472884 64.578,197.231884 65.316,199.808884 L70.245,217.325884 L59.256,232.241884 C57.658,234.419884 57.658,237.389884 59.256,239.567884 L70.245,254.476884 L65.316,271.985884 C64.592,274.570884 65.602,277.321884 67.849,278.806884 L83.693,289.321884 L85.427,307.426884 C85.683,310.019884 87.522,312.175884 90.055,312.823884 L108.898,317.639884 L117.129,334.236884 C118.245,336.497884 120.641,337.718884 123.159,337.650884 L142.741,336.082884 L156.61,349.107884 C158.419,350.810884 161.087,351.255884 163.303,350.260884 L181.151,342.444884 L198.954,350.260884 C199.753,350.614884 200.597,350.780884 201.441,350.780884 C202.979,350.780884 204.501,350.207884 205.662,349.107884 L219.546,336.082884 L239.113,337.650884 C241.525,337.703884 244.012,336.489884 245.143,334.236884 L253.359,317.646884 L272.233,312.837884 C274.766,312.189884 276.605,310.033884 276.861,307.440884 L278.595,289.328884 L294.439,278.813884 C296.685,277.328884 297.695,274.577884 296.972,271.992884 L292.043,254.475884 L303.032,239.566884 C304.63,237.388884 304.63,234.418884 303.032,232.240884 L292.057,217.332884 Z M279.349,254.921884 L283.871,271.006884 L269.324,280.661884 C267.771,281.694884 266.761,283.367884 266.58,285.221884 L264.982,301.939884 L247.571,306.378884 C245.822,306.823884 244.36,308.006884 243.561,309.619884 L235.933,325.003884 L217.813,323.556884 C216.094,323.481884 214.361,324.023884 213.095,325.214884 L200.191,337.319884 L183.639,330.053884 C182.041,329.360884 180.247,329.360884 178.679,330.053884 L162.082,337.319884 L149.193,325.214884 C148.047,324.136884 146.54,323.541884 144.972,323.541884 C144.806,323.541884 144.64,323.549884 144.475,323.556884 L126.34,325.003884 L118.712,309.612884 C117.913,307.999884 116.451,306.816884 114.702,306.371884 L97.306,301.932884 L95.708,285.214884 C95.527,283.360884 94.517,281.687884 92.964,280.654884 L78.417,270.999884 L82.939,254.922884 C83.452,253.090884 83.105,251.123884 81.974,249.586884 L71.904,235.906884 L81.989,222.218884 C83.12,220.680884 83.481,218.713884 82.954,216.882884 L78.417,200.797884 L92.979,191.142884 C94.532,190.109884 95.542,188.436884 95.723,186.582884 L97.321,169.857884 L114.717,165.425884 C116.466,164.980884 117.928,163.797884 118.727,162.184884 L126.355,146.800884 L144.475,148.247884 C146.194,148.307884 147.927,147.780884 149.193,146.589884 L162.097,134.484884 L178.679,141.750884 C180.247,142.443884 182.056,142.443884 183.624,141.750884 L200.206,134.492884 L213.095,146.597884 C214.361,147.788884 216.11,148.323884 217.813,148.255884 L235.948,146.800884 L243.576,162.191884 C244.375,163.804884 245.837,164.987884 247.586,165.432884 L264.982,169.871884 L266.58,186.589884 C266.761,188.443884 267.771,190.116884 269.324,191.149884 L283.886,200.804884 L279.349,216.889884 C278.821,218.721884 279.183,220.688884 280.314,222.225884 L290.384,235.905884 L280.314,249.585884 C279.183,251.122884 278.837,253.089884 279.349,254.921884 Z" id="Shape"></path><path d="M110.904,76.7538843 C109.834,74.8768843 107.723,73.8518843 105.568,74.0628843 L44.5,81.5168843 C43.068,81.6978843 41.771,82.4288843 40.882,83.5668843 C39.993,84.7048843 39.601,86.1448843 39.797,87.5688843 L47.696,148.982884 C47.967,151.153884 49.52,152.939884 51.631,153.512884 C52.098,153.640884 52.581,153.700884 53.048,153.700884 C54.691,153.700884 56.289,152.946884 57.329,151.597884 L110.498,82.7288843 C111.824,81.0048843 111.99,78.6528843 110.904,76.7538843 Z M56.741,134.670884 L51.193,91.5868843 L94.035,86.3558843 L56.741,134.670884 Z" id="Shape"></path></g></g></g></svg> 