<?xml version="1.0" encoding="UTF-8"?> <svg xmlns="http://www.w3.org/2000/svg" xmlns:xlink="http://www.w3.org/1999/xlink" width="661px" height="661px" viewBox="0 0 661 661" version="1.1"><title>Chocolate_menu_black@3x</title><g id="Snackje-2.0" stroke="none" stroke-width="1" fill="none" fill-rule="evenodd"><g id="Chocolate_menu_black"><rect id="Rectangle" stroke-opacity="0" stroke="#979797" fill-opacity="0" fill="#D8D8D8" x="0.5" y="0.5" width="660" height="660"></rect><path d="M580,230 C592,230 602,240 602,252 C602,264 592,275 580,275 C567,275 557,264 557,252 C557,240 567,230 580,230 Z M451,134 C466,134 478,146 478,161 C478,176 466,188 451,188 C436,188 424,176 424,161 C424,146 436,134 451,134 Z M475,0 C492,0 506,13 506,30 C506,47 492,61 475,61 C459,61 445,47 445,30 C445,13 459,0 475,0 Z M460,319 C420,325 381,317 348,294 L348,337 L468,337 C465,331 462,325 460,319 Z M487,276 C493,318 509,355 558,355 C596,355 616,326 639,301 L639,661 L22,661 L22,47 L299,47 C299,82 299,85 328,105 C280,222 365,310 487,276 Z M313,262 C280,221 270,166 286,117 C276,107 269,95 266,82 L57,82 L57,337 L313,337 L313,262 Z M57,372 L57,626 L313,626 L313,372 L57,372 Z M348,626 L604,626 L604,380 C569,395 531,393 500,372 L348,372 L348,626 Z M123,284 C123,308 88,308 88,284 L88,110 L264,110 C287,110 287,145 264,145 L123,145 L123,284 Z M414,581 C414,604 379,604 379,581 L379,406 L555,406 C578,406 578,441 555,441 L414,441 L414,581 Z M123,581 C123,604 88,604 88,581 L88,406 L264,406 C287,406 287,441 264,441 L123,441 L123,581 Z" id="Shape" fill="#000000" fill-rule="nonzero"></path></g></g></svg> 