<?xml version="1.0" encoding="UTF-8"?> <svg xmlns="http://www.w3.org/2000/svg" xmlns:xlink="http://www.w3.org/1999/xlink" width="482px" height="481px" viewBox="0 0 482 481" version="1.1"><title>Group@3x</title><g id="Snackje-2.0" stroke="none" stroke-width="1" fill="none" fill-rule="evenodd"><g id="Group" transform="translate(0.978000, 0.000000)" fill="#000000" fill-rule="nonzero"><path d="M155.001,119.999 C135.702,119.999 120.001,135.7 120.001,154.999 C120.001,174.298 135.702,189.999 155.001,189.999 C174.3,189.999 190.001,174.298 190.001,154.999 C190.001,135.7 174.3,119.999 155.001,119.999 Z M155.001,169.999 C146.73,169.999 140.001,163.27 140.001,154.999 C140.001,146.728 146.73,139.999 155.001,139.999 C163.272,139.999 170.001,146.728 170.001,154.999 C170.001,163.27 163.272,169.999 155.001,169.999 Z" id="Shape"></path><path d="M295.001,129.999 C275.702,129.999 260.001,145.7 260.001,164.999 C260.001,184.298 275.702,199.999 295.001,199.999 C314.3,199.999 330.001,184.298 330.001,164.999 C330.001,145.7 314.299,129.999 295.001,129.999 Z M295.001,179.999 C286.73,179.999 280.001,173.27 280.001,164.999 C280.001,156.728 286.73,149.999 295.001,149.999 C303.272,149.999 310.001,156.728 310.001,164.999 C310.001,173.27 303.272,179.999 295.001,179.999 Z" id="Shape"></path><path d="M463.754,153.059 C462.348,149.44 458.973,146.963 455.098,146.705 C451.226,146.453 447.55,148.455 445.676,151.857 C439.51,163.047 427.756,169.999 415,169.999 C392.162,169.999 375.236,148.289 381.184,125.964 C382.322,121.69 380.517,117.176 376.746,114.865 C369.402,110.364 363.99,103.368 361.504,95.166 C360.535,91.968 358.032,89.465 354.834,88.496 C331.843,81.529 322.316,53.428 337.061,33.924 C340.99,28.726 338.972,21.205 332.96,18.675 C303.49,6.283 272.214,2.84217094e-14 240,2.84217094e-14 C107.36,2.84217094e-14 0,107.34 0,240 C0,304.106 24.964,364.375 70.294,409.706 C164.084,503.496 315.9,503.511 409.705,409.706 C479.336,340.075 497.095,238.793 463.754,153.059 Z M240.001,459.999 C118.693,459.999 20.001,361.308 20.001,239.999 C20.001,118.69 118.692,19.999 240.001,19.999 C265.694,19.999 290.731,24.356 314.585,32.963 C302.49,60.532 314.854,93.973 344.118,105.894 C347.636,114.465 353.261,121.995 360.472,127.811 C356.127,160.812 381.923,189.999 415,189.999 C428.33,189.999 440.96,185.172 450.775,176.769 C456.902,197.194 460,218.391 460,239.999 C460,361.307 361.309,459.999 240.001,459.999 Z" id="Shape"></path><path d="M260.001,254.999 C260.001,235.701 244.3,219.999 225.001,219.999 C205.702,219.999 190.001,235.7 190.001,254.999 C190.001,274.298 205.702,289.999 225.001,289.999 C244.299,289.999 260.001,274.297 260.001,254.999 Z M225.001,269.999 C216.73,269.999 210.001,263.27 210.001,254.999 C210.001,246.728 216.73,239.999 225.001,239.999 C233.272,239.999 240.001,246.727 240.001,254.999 C240.001,263.271 233.272,269.999 225.001,269.999 Z" id="Shape"></path><path d="M360.001,244.999 C340.702,244.999 325.001,260.7 325.001,279.999 C325.001,299.298 340.702,314.999 360.001,314.999 C379.3,314.999 395.001,299.298 395.001,279.999 C395.001,260.7 379.299,244.999 360.001,244.999 Z M360.001,294.999 C351.73,294.999 345.001,288.27 345.001,279.999 C345.001,271.728 351.73,264.999 360.001,264.999 C368.272,264.999 375.001,271.728 375.001,279.999 C375.001,288.27 368.272,294.999 360.001,294.999 Z" id="Shape"></path><path d="M280.001,334.999 C260.702,334.999 245.001,350.7 245.001,369.999 C245.001,389.298 260.702,404.999 280.001,404.999 C299.3,404.999 315.001,389.298 315.001,369.999 C315.001,350.7 299.299,334.999 280.001,334.999 Z M280.001,384.999 C271.73,384.999 265.001,378.27 265.001,369.999 C265.001,361.728 271.73,354.999 280.001,354.999 C288.272,354.999 295.001,361.728 295.001,369.999 C295.001,378.27 288.272,384.999 280.001,384.999 Z" id="Shape"></path><path d="M115.001,259.999 C95.702,259.999 80.001,275.7 80.001,294.999 C80.001,314.298 95.702,329.999 115.001,329.999 C134.3,329.999 150.001,314.298 150.001,294.999 C150.001,275.7 134.3,259.999 115.001,259.999 Z M115.001,309.999 C106.73,309.999 100.001,303.27 100.001,294.999 C100.001,286.728 106.73,279.999 115.001,279.999 C123.272,279.999 130.001,286.728 130.001,294.999 C130.001,303.27 123.272,309.999 115.001,309.999 Z" id="Shape"></path></g></g></svg> 