<?xml version="1.0" encoding="UTF-8"?> <svg xmlns="http://www.w3.org/2000/svg" xmlns:xlink="http://www.w3.org/1999/xlink" width="600px" height="600px" viewBox="0 0 600 600" version="1.1"><title>drinks_menu_black@3x</title><g id="Snackje-2.0" stroke="none" stroke-width="1" fill="none" fill-rule="evenodd"><g id="drinks_menu_black"><rect id="Rectangle" stroke-opacity="0" stroke="#979797" fill-opacity="0" fill="#D8D8D8" x="0.5" y="0.5" width="599" height="599"></rect><path d="M464.236729,107.286774 L464.236729,106.81247 C464.236729,106.604962 464.236729,106.456742 464.236729,106.249234 C464.007092,103.543334 462.781809,101.018828 460.798024,99.1643139 L460.798024,98.9864498 C445.674878,85.3504336 433.185133,69.0524714 423.950512,50.9038559 C422.182461,46.8270016 418.167045,44.1849744 413.723326,44.1746643 L324.405906,44.1746643 C324.198398,43.9968002 324.109466,43.7892921 323.901958,43.611428 L267.252243,1.69478942 C262.339966,-1.38026636 255.889453,-0.165566288 252.432101,4.48557936 C248.974749,9.13672502 249.670681,15.6636155 254.031012,19.481199 L287.23231,44.0560882 L185.108675,44.0560882 C180.664956,44.0663983 176.64954,46.7084255 174.88149,50.7852799 C165.765281,68.9473086 153.396947,85.2843609 138.389706,98.9864498 L138.389706,99.1643139 C136.40592,101.018828 135.180637,103.543334 134.951,106.249234 C134.951,106.456742 134.951,106.604962 134.951,106.81247 L134.951,107.286774 L134.951,536.917498 L134.951,537.243582 C135.198435,538.661349 135.515015,540.066175 135.899609,541.453032 C136.190453,541.985645 136.527726,542.491555 136.907505,542.964877 C137.334062,543.691512 137.841216,544.367717 138.41935,544.98067 L138.597214,545.217822 C153.551343,558.864025 165.870447,575.142124 174.940778,593.241128 C176.681004,597.345287 180.710111,600.008001 185.167963,599.999982 L413.841902,599.999982 C418.256602,599.960635 422.227233,597.305785 423.950512,593.241128 C433.079953,575.139366 445.447979,558.863004 460.442295,545.217822 L460.442295,545.010314 C462.428803,543.170078 463.655364,540.653514 463.881001,537.955038 C463.881001,537.74753 463.881001,537.569666 463.881001,537.362158 L463.881001,536.917498 L464.236729,107.286774 Z M406.756982,577.766952 L192.134307,577.766952 C186.443662,567.160458 179.593493,557.218267 171.70958,548.122936 L332.706231,548.122936 C338.845707,548.122936 343.822737,543.145907 343.822737,537.00643 C343.822737,530.866953 338.845707,525.889924 332.706231,525.889924 L156.887572,525.889924 L156.887572,112.089105 C170.915634,98.7650318 182.804348,83.3566978 192.134307,66.4076763 L406.756982,66.4076763 C412.442384,77.0173681 419.29294,86.9601209 427.181709,96.0516923 L226.877094,96.0516923 C220.737617,96.0516923 215.760588,101.028722 215.760588,107.168198 C215.760588,113.307675 220.737617,118.284704 226.877094,118.284704 L442.003717,118.284704 L442.003717,525.800992 L399.375622,525.800992 C393.236146,525.800992 388.259116,530.778021 388.259116,536.917498 C388.259116,543.056975 393.236146,548.034004 399.375622,548.034004 L427.181709,548.034004 C419.29234,557.157215 412.441998,567.129483 406.756982,577.766952 Z M299.445645,216.760627 C277.267336,216.815162 255.681757,223.927293 237.815735,237.068276 C237.472111,237.198492 237.135669,237.346922 236.807839,237.512936 C236.287685,237.982466 235.81141,238.49843 235.384926,239.054425 C195.04541,270.650757 183.471058,326.785092 208.02208,371.76122 C232.573103,416.737347 286.048367,437.363188 334.442584,420.522627 C382.836801,403.682067 411.955322,354.314659 403.281478,303.813479 C394.607635,253.312299 350.685577,216.489996 299.445645,216.760627 L299.445645,216.760627 Z M216.4424,322.087314 C216.390424,300.326907 224.910233,279.421426 240.157613,263.896111 C243.439955,274.208819 244.60949,285.077426 243.596319,295.85236 C238.136973,328.059579 256.733427,359.500619 287.588038,370.229196 C311.718267,381.908938 318.625323,394.715153 320.611472,402.126157 C295.6836,409.211951 268.873228,404.096087 248.306048,388.329084 C227.738869,372.562081 215.836104,348.000072 216.205248,322.087314 L216.4424,322.087314 Z M341.243707,393.588681 C333.359028,373.619689 317.46772,357.868155 297.429852,350.160197 C274.460899,343.273469 260.700702,319.826819 265.888619,296.415596 C267.264515,280.652074 264.601747,264.797893 258.15153,250.348795 C270.666595,242.964001 284.914509,239.026135 299.445645,238.935849 C336.865331,239.059176 369.575689,264.205467 379.314797,300.335758 C389.053906,336.466049 373.413353,374.64558 341.125131,393.559037 L341.243707,393.588681 Z" id="Shape" fill="#000000" fill-rule="nonzero"></path></g></g></svg> 