<?xml version="1.0" encoding="UTF-8"?> <svg xmlns="http://www.w3.org/2000/svg" xmlns:xlink="http://www.w3.org/1999/xlink" width="650px" height="650px" viewBox="0 0 650 650" version="1.1"><title>seasonal_menu_black@3x</title><g id="Snackje-2.0" stroke="none" stroke-width="1" fill="none" fill-rule="evenodd"><g id="seasonal_menu_black"><g id="Group" transform="translate(9.050633, 0.000000)" fill="#000000" fill-rule="nonzero"><path d="M625.338709,559.729402 L597.318068,543.327075 L620.554697,532.392191 C626.022139,529.65847 628.755861,523.507597 627.389,518.040155 C625.338709,511.889282 617.820976,508.472131 611.670104,511.205852 L573.398008,529.65847 L544.010505,512.572712 C535.809342,507.7887 535.809342,496.170386 544.010505,491.386374 L573.398008,474.300617 L612.353534,492.069804 C613.720394,492.753234 615.770685,493.436665 617.137546,493.436665 C621.921558,493.436665 626.022139,490.702943 628.07243,485.918931 C630.122721,480.451489 626.70557,474.300617 621.238127,471.566895 L598.001498,460.632011 L626.022139,444.229684 C631.489582,441.495963 633.539873,434.66166 631.489582,429.194218 C628.755861,423.043345 621.238127,420.309624 615.087255,423.726776 L586.383183,440.812533 L589.116904,415.525612 C589.800334,409.37474 585.699753,403.907297 580.23231,402.540437 C573.398008,401.173576 567.247135,405.957588 566.563705,412.791891 L561.779693,455.164569 L532.392191,472.250326 C524.191027,476.350907 513.939573,470.883465 513.939573,461.315441 L513.939573,427.143927 L548.111087,402.540437 C552.895099,399.123285 554.94539,392.288983 551.528239,387.504971 C548.111087,381.354098 540.593354,379.987237 535.125912,384.087819 L513.939573,399.123285 L513.939573,367.002062 C513.939573,360.85119 509.838991,355.383747 503.688119,355.383747 C496.853816,354.700317 491.386374,360.167759 491.386374,367.002062 L491.386374,399.806716 L470.200035,384.771249 C465.416023,381.354098 458.58172,382.037528 454.481138,386.13811 C449.697126,391.605552 451.063987,399.123285 456.531429,403.223867 L491.386374,427.827357 L491.386374,461.998871 C491.386374,471.566895 481.134919,477.034338 472.933756,472.250326 L443.546254,455.164569 L439.445672,413.475321 C438.762242,407.324449 433.97823,402.540437 427.827357,402.540437 C420.993054,402.540437 415.525612,408.691309 416.209043,414.842182 L418.942764,440.812533 L390.922122,424.410206 C385.45468,421.676485 378.620377,422.359915 375.203226,427.143927 C371.102644,432.611369 373.152935,440.129102 378.620377,443.546254 L406.641019,459.948581 L383.404389,470.883465 C377.936947,473.617186 375.203226,479.768059 376.570086,485.235501 C377.936947,490.019513 382.720959,492.753234 387.504971,492.753234 C388.871831,492.753234 390.922122,492.753234 392.288983,491.386374 L431.927939,474.984047 L461.315441,492.069804 C469.516605,496.853816 469.516605,508.472131 461.315441,513.256143 L431.927939,529.65847 L392.972413,511.889282 C386.82154,509.155561 379.303807,511.889282 377.253516,518.723585 C375.203226,524.191027 378.620377,530.3419 384.087819,533.075621 L407.324449,544.010505 L379.303807,560.412832 C374.519795,563.146553 371.786074,569.297426 373.836365,574.764868 C375.886656,579.54888 379.987237,582.282601 384.771249,582.282601 C386.82154,582.282601 388.871831,581.599171 390.238692,580.915741 L418.259333,564.513414 L415.525612,590.483765 C414.842182,596.634637 418.942764,602.10208 425.093636,603.46894 C425.777066,603.46894 426.460497,603.46894 426.460497,603.46894 C432.611369,603.46894 437.395381,598.684928 438.078812,593.217486 L442.179393,550.844808 L471.566895,533.759051 C479.768059,528.975039 490.019513,535.125912 490.019513,544.010505 L490.019513,578.18202 L455.847999,602.78551 C451.063987,606.202661 449.013696,613.036964 452.430848,617.820976 C454.481138,621.238127 458.58172,623.288418 462.682302,623.288418 C464.732593,623.288418 467.466314,622.604988 469.516605,621.238127 L490.702943,606.202661 L490.702943,638.323885 C490.702943,644.474757 494.803525,649.942199 500.954398,649.942199 C507.7887,650.62563 513.256143,645.158187 513.256143,638.323885 L513.256143,604.835801 L534.442482,619.871267 C536.492772,621.238127 538.543063,621.921558 541.276784,621.921558 C545.377366,621.921558 548.794517,619.871267 551.528239,616.454115 C554.94539,611.670104 552.895099,604.835801 548.111087,601.418649 L513.939573,576.815159 L513.939573,542.643645 C513.939573,533.075621 524.191027,527.608179 532.392191,532.392191 L561.779693,549.477948 L565.880275,591.850625 C566.563705,598.001498 571.347717,602.10208 577.498589,602.10208 C578.18202,602.10208 578.86545,602.10208 578.86545,602.10208 C585.016322,601.418649 589.116904,595.267777 588.433474,589.116904 L585.699753,563.829984 L613.720394,580.23231 C615.770685,581.599171 617.820976,581.599171 619.187837,581.599171 C623.971849,581.599171 628.07243,578.86545 630.122721,574.081438 C632.856442,568.613996 630.122721,562.463123 625.338709,559.729402 Z" id="Path"></path><circle id="Oval" cx="151.038093" cy="151.038093" r="68.3430283"></circle><path d="M151.038093,61.5087255 C159.239256,61.5087255 165.390129,55.3578529 165.390129,47.1566895 L165.390129,14.3520359 C165.390129,6.15087255 159.239256,-3.03504014e-15 151.038093,-3.03504014e-15 C142.836929,-3.03504014e-15 136.686057,6.15087255 136.686057,14.3520359 L136.686057,47.1566895 C136.686057,55.3578529 143.520359,61.5087255 151.038093,61.5087255 Z" id="Path"></path><path d="M67.659598,88.1625065 C70.3933192,90.8962277 73.8104706,92.2630882 77.9110523,92.2630882 C81.3282037,92.2630882 85.4287854,90.8962277 88.1625065,88.1625065 C93.6299488,82.6950643 93.6299488,73.8104706 88.1625065,67.659598 L64.2424466,44.4229684 C58.7750044,38.9555261 49.8904107,38.9555261 43.7395381,44.4229684 C38.2720959,49.8904107 38.2720959,58.7750044 43.7395381,64.9258769 L67.659598,88.1625065 Z" id="Path"></path><path d="M47.1566895,165.390129 C55.3578529,165.390129 61.5087255,159.239256 61.5087255,151.038093 C61.5087255,142.836929 55.3578529,136.686057 47.1566895,136.686057 L14.3520359,136.686057 C6.15087255,136.686057 2.1245281e-14,142.836929 2.1245281e-14,151.038093 C2.1245281e-14,159.239256 6.15087255,165.390129 14.3520359,165.390129 L47.1566895,165.390129 Z" id="Path"></path><path d="M67.659598,214.597109 L44.4229684,237.833739 C38.9555261,243.301181 38.9555261,252.185775 44.4229684,258.336647 C47.1566895,261.070368 50.573841,262.437229 54.6744227,262.437229 C58.0915741,262.437229 62.1921558,261.070368 64.9258769,258.336647 L88.1625065,235.100017 C93.6299488,229.632575 93.6299488,220.747981 88.1625065,214.597109 C82.011634,209.129667 73.1270403,209.129667 67.659598,214.597109 Z" id="Path"></path><path d="M136.686057,254.919496 L136.686057,287.724149 C136.686057,295.925313 142.836929,302.076185 151.038093,302.076185 C159.239256,302.076185 165.390129,295.925313 165.390129,287.724149 L165.390129,254.919496 C165.390129,246.718332 159.239256,240.56746 151.038093,240.56746 C143.520359,240.56746 136.686057,246.718332 136.686057,254.919496 Z" id="Path"></path><path d="M214.597109,214.597109 C209.129667,220.064551 209.129667,228.949145 214.597109,235.100017 L237.833739,258.336647 C240.56746,261.070368 243.984611,262.437229 248.085193,262.437229 C251.502344,262.437229 255.602926,261.070368 258.336647,258.336647 C263.804089,252.869205 263.804089,243.984611 258.336647,237.833739 L235.100017,214.597109 C228.949145,209.129667 220.064551,209.129667 214.597109,214.597109 Z" id="Path"></path><path d="M287.724149,136.686057 L254.919496,136.686057 C246.718332,136.686057 240.56746,142.836929 240.56746,151.038093 C240.56746,159.239256 246.718332,165.390129 254.919496,165.390129 L287.724149,165.390129 C295.925313,165.390129 302.076185,159.239256 302.076185,151.038093 C302.076185,143.520359 295.925313,136.686057 287.724149,136.686057 Z" id="Path"></path><path d="M224.848563,92.2630882 C228.265715,92.2630882 232.366296,90.8962277 235.100017,88.1625065 L258.336647,64.9258769 C263.804089,59.4584346 263.804089,50.573841 258.336647,44.4229684 C252.869205,38.9555261 243.984611,38.9555261 237.833739,44.4229684 L214.597109,67.659598 C209.129667,73.1270403 209.129667,82.011634 214.597109,88.1625065 C217.33083,90.8962277 220.747981,92.2630882 224.848563,92.2630882 Z" id="Path"></path><path d="M410.05817,297.292173 C411.425031,297.975604 413.475321,297.975604 414.842182,297.975604 C419.626194,297.975604 425.093636,295.241882 427.143927,289.77444 C436.028521,267.221241 447.646836,248.085193 459.948581,231.682866 C493.436665,249.452053 535.125912,254.236065 564.513414,235.100017 C613.036964,202.295364 622.604988,86.1122157 619.187837,17.7691874 C618.504406,5.46744227 604.15237,-1.50990331e-14 595.267777,8.88459368 C523.507597,79.9613431 414.158752,77.9110523 406.641019,154.455244 C405.274158,170.857571 410.7416,187.259898 421.676485,200.928503 C473.617186,148.987802 528.975039,131.218614 531.70876,129.851754 C532.392191,129.851754 533.075621,129.851754 533.759051,129.168324 C518.723585,137.369487 442.179393,182.475886 402.540437,279.522986 C399.806716,287.040719 403.223867,294.558452 410.05817,297.292173 Z" id="Path"></path><path d="M250.135484,472.250326 C239.884029,472.250326 223.481703,474.984047 207.762806,479.084629 C221.431412,471.566895 235.100017,461.315441 242.617751,453.797708 C259.703508,436.711951 263.804089,413.475321 252.185775,401.173576 C240.56746,389.555261 216.6474,393.655843 199.561643,410.7416 C192.04391,418.259333 182.475886,431.244509 174.274722,445.596545 C178.375304,430.561078 181.109025,414.158752 181.109025,403.223867 C181.109025,379.303807 167.440419,359.484329 151.038093,359.484329 C134.635766,359.484329 120.96716,379.303807 120.96716,403.223867 C120.96716,413.475321 123.700881,429.877648 127.801463,445.596545 C120.28373,431.927939 110.032276,418.259333 102.514542,410.7416 C85.4287854,393.655843 62.1921558,389.555261 49.8904107,401.173576 C38.2720959,412.791891 42.3726776,436.711951 59.4584346,453.797708 C66.9761678,461.315441 79.9613431,470.883465 94.3133791,479.084629 C79.2779129,474.984047 62.1921558,472.250326 51.9407015,472.250326 C28.0206416,472.250326 8.2011634,485.918931 8.2011634,502.321258 C8.2011634,519.407015 28.0206416,532.392191 51.9407015,532.392191 C62.1921558,532.392191 78.5944826,529.65847 94.3133791,525.557888 C80.6447734,533.075621 66.9761678,543.327075 59.4584346,550.844808 C42.3726776,567.930565 38.2720959,591.167195 49.8904107,603.46894 C61.5087255,615.087255 85.4287854,610.986673 102.514542,593.900916 C110.032276,586.383183 119.6003,573.398008 127.801463,559.045972 C123.700881,574.081438 120.96716,590.483765 120.96716,601.418649 C120.96716,625.338709 134.635766,645.158187 151.038093,645.158187 C168.12385,645.158187 181.109025,625.338709 181.109025,601.418649 C181.109025,591.167195 178.375304,574.764868 174.274722,559.045972 C181.792455,572.714577 192.04391,586.383183 199.561643,593.900916 C216.6474,610.986673 239.884029,615.087255 252.185775,603.46894 C263.804089,591.850625 259.703508,567.930565 242.617751,550.844808 C235.100017,543.327075 222.114842,533.759051 207.762806,525.557888 C222.798272,529.65847 239.884029,532.392191 250.135484,532.392191 C274.055544,532.392191 293.875022,518.723585 293.875022,502.321258 C293.875022,485.918931 274.055544,472.250326 250.135484,472.250326 Z M151.038093,538.543063 C131.218614,538.543063 115.499718,522.824167 115.499718,503.004688 C115.499718,483.18521 131.218614,467.466314 151.038093,467.466314 C170.857571,467.466314 186.576467,483.18521 186.576467,503.004688 C187.259898,522.140736 170.857571,538.543063 151.038093,538.543063 Z" id="Shape"></path></g><rect id="Rectangle" stroke-opacity="0" stroke="#979797" fill-opacity="0" fill="#D8D8D8" x="0.5" y="0.5" width="649" height="649"></rect></g></g></svg> 