<?xml version="1.0" encoding="UTF-8"?> <svg xmlns="http://www.w3.org/2000/svg" xmlns:xlink="http://www.w3.org/1999/xlink" width="317px" height="317px" viewBox="0 0 317 317" version="1.1"><title>Group 2@3x</title><g id="Snackje-2.0" stroke="none" stroke-width="1" fill="none" fill-rule="evenodd"><g id="Group-2" fill="#000000" fill-rule="nonzero"><path d="M220,82 L257,61 L194,25 L194,67 C204,70 212,76 220,82 Z M146,229 L84,166 C81,192 93,219 118,232 C147,247 182,241 202,216 L138,152 L148,142 L210,204 L225,177 C244,145 232,104 200,85 C184,76 166,75 150,79 L205,135 L195,145 L136,85 C125,91 116,99 110,110 L92,140 C90,143 89,147 88,150 L156,219 L146,229 Z M238,184 L220,214 C203,243 170,259 137,254 L137,317 L32,256 L87,225 C66,199 63,162 80,133 L97,103 C114,74 147,59 180,64 L180,0 L285,61 L230,93 C251,119 254,155 238,184 Z M123,250 C114,247 105,242 97,235 L61,256 L123,292 L123,250 Z" id="Shape"></path><rect id="Rectangle" fill-opacity="0" x="0" y="0" width="317" height="317"></rect></g></g></svg> 